<?xml version="1.0" encoding="UTF-8" standalone="no"?>
<svg
   xmlns:dc="http://purl.org/dc/elements/1.1/"
   xmlns:cc="http://creativecommons.org/ns#"
   xmlns:rdf="http://www.w3.org/1999/02/22-rdf-syntax-ns#"
   xmlns:svg="http://www.w3.org/2000/svg"
   xmlns="http://www.w3.org/2000/svg"
   viewBox="0 0 1122.5197 793.70074"
   height="793.70074"
   width="1122.5197"
   xml:space="preserve"
   id="svg2"
   version="1.1"><metadata
     id="metadata8"><rdf:RDF><cc:Work
         rdf:about=""><dc:format>image/svg+xml</dc:format><dc:type
           rdf:resource="http://purl.org/dc/dcmitype/StillImage" /></cc:Work></rdf:RDF></metadata><defs
     id="defs6" /><g
     transform="matrix(1.3333333,0,0,-1.3333333,0,793.70076)"
     id="g10"><g
       transform="scale(1,-1)"
       id="g12"><path
         id="path14"
         style="fill:#6f0a19;fill-opacity:1;fill-rule:evenodd;stroke:none"
         d="m 314.77002,-338.8291 c -19.53857,0 -35.42481,19.06933 -35.42481,42.50781 0,23.44336 15.88624,42.51074 35.42481,42.51074 19.53516,0 35.42822,-19.06738 35.42822,-42.51074 0,-23.43848 -15.89306,-42.50781 -35.42822,-42.50781 z" /><path
         id="path16"
         style="fill:#6f0a19;fill-opacity:1;fill-rule:nonzero;stroke:none"
         d="m 543.0459,-300.71387 c 0,0 0,-1.28418 0,-1.28418 0,0 11.85742,0 11.85742,0 0,0 0,1.28418 0,1.28418 0,0 -11.85742,0 -11.85742,0 z m -26.40332,10.82032 c -0.25586,0 -0.35547,-0.0977 -0.35547,-0.29786 0,-0.20019 0,-0.30273 0.14844,-0.45214 0,0 17.33105,-25.40821 17.33105,-25.40821 0,0 -13.40722,0 -13.40722,0 -1.66602,0 -2.57618,1.0459 -2.73243,1.0459 -0.0976,0 -0.25195,-0.14941 -0.20312,-0.34961 0,0 0.4082,-1.90234 0.4082,-1.90234 0.0508,-0.24903 0.15625,-0.44922 0.35156,-0.44922 0.14844,0 0.60743,0.2959 3.93555,0.2959 0,0 15.35254,0 15.35254,0 0,0 0.25195,0.90625 0.25195,0.90625 0,0 -16.78418,24.60937 -16.78418,24.60937 3.03516,-0.0195 12.5752,0.32227 16.75684,0.74219 0,0 10.17383,-23.53516 10.17383,-23.53516 0.31054,-0.65527 0.2539,-1.15136 -0.0996,-1.85449 0,0 -0.55469,-1.15234 -0.55469,-1.15234 0,0 3.32813,0 3.32813,0 0.20507,0 0.40429,0.0976 0.50781,0.35254 0,0 11.55664,27.98632 11.55664,27.98632 0,0 -3.38086,0.45411 -3.38086,0.45411 0,0 -5.27344,-13.0127 -5.27344,-13.0127 0,0 -4.61133,-11.62109 -4.61133,-11.62109 0,0 -5.00586,11.60937 -5.00586,11.60937 0,0 -5.14648,12.57031 -5.14648,12.57031 -4.4668,-0.69824 -20.0498,-1.39648 -22.54785,-0.5371 z m -1.30274,-27.51758 c 0,0.2539 -0.0566,0.60742 -0.96484,0.65429 -2.32227,0.0977 -2.42383,0.65137 -2.42383,2.6543 0,0 0,24.63379 0,24.63379 0,0 -1.96094,0.39746 -1.96094,0.39746 0,0 -18.07617,-24.63086 -18.07617,-24.63086 0,0 -0.0488,0 -0.0488,0 0,0 0,24.18164 0,24.18164 0,0 -1.5625,0.44922 -1.5625,0.44922 0,0 0,-25.03125 0,-25.03125 0,-2.00293 -0.0976,-2.55664 -2.42187,-2.6543 -0.91602,-0.0469 -0.91602,-0.40039 -0.91602,-0.65429 0,-0.34668 0.15625,-0.54883 0.45899,-0.4961 1.7168,0.2002 4.94922,0.29785 6.21094,0.40039 0.0976,0.14942 0.26171,0.2959 0.4082,0.50293 0,0 16.29883,22.62793 16.29883,22.62793 0,0 0,-19.72656 0,-19.72656 0,-2.00293 -0.0996,-2.55664 -2.42383,-2.6543 -0.90625,-0.0469 -0.96289,-0.40039 -0.96289,-0.65429 0,-0.34668 0.20312,-0.4961 0.50586,-0.4961 0.71094,0 3.02734,0.40039 3.88672,0.40039 0.80859,0 2.83007,-0.40039 3.48437,-0.40039 0.29688,0 0.50781,0.14942 0.50781,0.4961 z m -34.72265,13.41797 c 0,0 0.0293,1.10644 0.0293,1.10644 0,0 -0.29296,0 -0.29296,0 0,0 -8.58594,0 -8.58594,0 0,0 0,10.26367 0,10.26367 0,1.65039 0.0488,2.00196 1.31055,2.20703 1.01367,0.14356 1.86523,0.24414 3.27929,0.24414 1.40821,0 3.73242,-0.0518 4.79688,-0.24414 0.70312,-0.15136 1.40625,0.0947 1.71875,-1.75293 0.35156,-1.90429 0.70312,-2.00195 0.95508,-2.00195 0.30273,0 0.30273,0.0977 0.30273,0.5957 0,1.04981 -0.0488,2.30469 -0.10547,3.60547 -0.0488,1.00391 -0.24609,1.05274 -1.15234,1.00391 -1.31836,-0.0488 -3.59375,-0.1543 -5.41016,-0.20313 -1.55469,-0.0459 -4.94336,-0.0947 -6.25,-0.0947 0,0 -2.77539,0.19238 -2.77539,0.19238 0,0 0,-25.03125 0,-25.03125 0,-2.00293 -0.15625,-2.55664 -2.48047,-2.6543 -0.9043,-0.0469 -0.9043,-0.35351 -0.9043,-0.60058 0,-0.34961 0.20118,-0.54981 0.50391,-0.54981 0.30274,0 0.9082,0.0957 1.71875,0.24903 0.81055,0.15136 2.21875,0.24707 3.32227,0.24707 1.31836,0 5.09765,-0.0459 6.66797,-0.0957 1.81835,-0.0508 2.88085,-0.10254 4.1914,-0.15136 0.9082,-0.0488 1.10352,-0.0488 1.15235,0.95019 0.0586,1.30078 0.10742,2.60547 0.10742,3.65723 0,0.49805 0,0.60058 -0.30274,0.60058 -0.2539,0 -0.60547,-0.10253 -0.95703,-2.00195 -0.30273,-1.85351 -1.00781,-1.65332 -1.71094,-1.80176 -0.46679,-0.10254 -1.375,-0.10254 -1.62109,-0.10254 0,0 -5.30078,0 -5.30078,0 -0.75391,0 -1.05664,0.20313 -1.05664,0.70313 0,0 0,11.66016 0,11.66016 0,0 8.58594,0 8.58594,0 0,0 0.26367,0 0.26367,0 z m -19.47071,-13.21778 c 0,0.25391 -0.41015,0.65332 -1.71875,0.85449 -1.00585,0.15137 -1.11328,1.25293 -1.11328,2.19922 0,0 0,24.73438 0,24.73438 0,0 -3.32422,0.30273 -3.32422,0.30273 0,0 0,-25.03711 0,-25.03711 0,-0.99804 -0.15625,-2.04785 -1.00585,-2.19922 -1.66993,-0.30273 -1.92383,-0.60058 -1.92383,-0.85449 0,-0.2959 0.0977,-0.44726 0.5957,-0.39844 1.2207,0.10254 3.14453,0.19825 4.0957,0.19825 0.95703,0 2.57422,-0.0957 3.78907,-0.19825 0.49804,-0.0488 0.60546,0.10254 0.60546,0.39844 z m -12.28515,7.11719 c 0,5.15723 -3.82617,8.70801 -9.63672,8.70801 -1.25977,0 -2.92578,-0.90039 -2.92578,-1.40235 0,-0.0986 0.15234,-0.3955 0.30273,-0.3955 0.20117,0 1.26563,0.59961 2.37305,0.59961 4.89258,0 6.55859,-2.90332 6.55859,-6.55957 0,-4.59375 -2.01172,-7.17676 -8.73047,-7.17676 -1.20703,0 -1.4121,0.24414 -1.4121,1.53418 0,0 0,25.31738 0,25.31738 0,0 -3.33008,0.39746 -3.33008,0.39746 0,0 0,-25.01465 0,-25.01465 0,-1.99023 -0.10157,-2.5459 -2.42188,-2.64648 -0.9082,-0.0439 -0.95703,-0.39063 -0.95703,-0.64453 0,-0.34766 0.19531,-0.49317 0.49805,-0.49317 0.30859,0 0.91406,0.0928 1.71875,0.24414 0.81054,0.14649 2.42773,0.24903 3.53515,0.24903 1.71485,0 4.39063,-0.2002 6.10352,-0.2002 3.83398,0 8.32422,2.74219 8.32422,7.4834 z m -21.41406,20.625 c 0,0 -11.55274,-27.98828 -11.55274,-27.98828 -0.10742,-0.25 -0.30859,-0.35449 -0.51367,-0.35449 0,0 -3.32422,0 -3.32422,0 0,0 0.55078,1.15234 0.55078,1.15234 0.34766,0.70117 0.41016,1.20801 0.0977,1.85449 0,0 -11.09766,25.68457 -11.09766,25.68457 0,0 2.42188,-0.34863 2.42188,-0.34863 0,0 4.59375,-11.26855 4.59375,-11.26855 0,0 10.69922,0 10.69922,0 0,0 4.74609,11.72265 4.74609,11.72265 0,0 3.37891,-0.4541 3.37891,-0.4541 z m -8.68164,-12.56348 c 0,0 -9.58985,0 -9.58985,0 0,0 4.99414,-11.61914 4.99414,-11.61914 0,0 4.59571,11.61914 4.59571,11.61914 z m -18.95704,3.39942 c 0,6.30761 -5.81054,10.01367 -12.01171,10.01367 -2.32422,0 -7.12696,-0.75195 -9.84961,-2.60742 0,0 0.71093,-1.44532 0.71093,-1.44532 1.91602,1.6504 6.96289,2.95411 9.13868,2.95411 4.89257,0 9.49218,-2.8125 9.49218,-7.82227 0,-3.24121 -2.44922,-4.56543 -5.57422,-5.89258 -2.54882,-1.07226 -5.41992,-2.38672 -8.04687,-3.65429 -3.86524,-1.86524 -5.18359,-4.44922 -5.25391,-8.25391 -0.0879,-4.62695 2.98828,-9.72754 11.52344,-9.72754 2.01953,0 5.10547,0.39941 7.67578,0.89453 0.10547,1.95899 0.1543,3.96387 0.1543,5.5127 0,0.65136 0,0.7539 -0.35156,0.7539 -0.30274,0 -0.44922,-0.10254 -0.85743,-2.50488 -0.35156,-1.95605 -2.93945,-3.55664 -6.97461,-3.55664 -3.88671,0 -8.88671,2.60742 -8.88671,7.36523 0,8.70801 19.11132,5.95313 19.11132,17.97071 z" /><path
         id="path18"
         style="fill:#6f0a19;fill-opacity:1;fill-rule:nonzero;stroke:none"
         d="m 490.55859,-278.84863 c 0,0 -1.48437,0 -1.48437,0 -0.45117,0 -0.6543,0.17968 -0.6543,0.69726 0,0 0,8.75586 0,8.75586 0,0.61914 0.0195,0.65821 0.43946,0.78028 0.51757,0.15625 1.16015,0.20019 1.96093,0.20019 3.17383,0 4.41407,-2.2207 4.41407,-5.25781 0,-2.66211 -0.74024,-5.17578 -4.67579,-5.17578 z m 0.11524,10.93164 c -0.53711,0 -1.6582,-0.25879 -2.55664,-0.2002 0,0 -1.22071,0.0781 -1.22071,0.0781 0,0 0,-10.00879 0,-10.00879 0,-0.76172 0,-0.92383 -0.85937,-0.96289 -0.40039,-0.0195 -0.47852,-0.10156 -0.47852,-0.25781 0,-0.18165 0.0977,-0.28321 0.30079,-0.28321 0.21679,0 0.48046,0.0586 0.70312,0.10156 0.31445,0.0645 0.89844,0.10352 1.31836,0.10352 0.40039,0 0.80078,-0.0195 1.19336,-0.0391 0.50586,-0.0195 1.0625,-0.0449 1.92187,-0.0449 3.39844,0 5.91797,2.19726 5.91797,5.51757 0,3.55469 -2.34179,5.9961 -6.24023,5.9961 z" /><path
         id="path20"
         style="fill:#6f0a19;fill-opacity:1;fill-rule:nonzero;stroke:none"
         d="m 502.23633,-278.84863 c -0.36133,0.0586 -0.36133,0.45898 -0.36133,0.78125 0,0 0,9.8916 0,9.8916 0,0 -1.52344,0.11719 -1.52344,0.11719 0,0 0,-10.00879 0,-10.00879 0,-0.3418 -0.0195,-0.72266 -0.32031,-0.78125 -0.63672,-0.0977 -0.83984,-0.12305 -0.83984,-0.32227 0,-0.17578 0.0859,-0.2793 0.33984,-0.25976 0.48047,0.0449 1.24023,0.084 1.62109,0.084 0.37305,0 1.01758,-0.0391 1.50391,-0.084 0.25586,-0.0195 0.33398,0.084 0.33398,0.25976 0,0.18555 -0.26367,0.24414 -0.7539,0.32227 z" /><path
         id="path22"
         style="fill:#6f0a19;fill-opacity:1;fill-rule:nonzero;stroke:none"
         d="m 513.63477,-281.74902 c 0,0 -0.87891,0 -0.87891,0 -0.3418,0 -0.51758,0.26367 -0.51758,0.68359 0,0 0,6.13281 0,6.13281 0.32031,0.0391 0.45899,0.0586 0.85938,0.0586 3.15429,0 3.64062,-2.23633 3.64062,-3.81836 0,-1.85547 -0.74219,-3.05664 -3.10351,-3.05664 z m 6.75586,13.9541 c -0.0781,0.0781 -0.59571,0.11719 -0.9375,0.0586 -0.74024,-0.12207 -1.22071,-0.2832 -1.73829,-1.05957 0,0 -0.85937,-1.2793 -0.85937,-1.2793 0,0 -2.7168,-4.3789 -2.7168,-4.3789 -0.41992,0.082 -0.52344,0.12109 -1.36328,0.12109 0,0 -0.53711,0 -0.53711,0 0,0 0,6.11817 0,6.11817 0,0 -1.60156,0.21972 -1.60156,0.21972 0,0 0,-12.65039 0,-12.65039 0,-0.96289 -0.0137,-1.16211 -1.11524,-1.2207 -0.46093,-0.0195 -0.55859,-0.0391 -0.55859,-0.24024 0,-0.26367 0.1582,-0.30273 0.33399,-0.30273 0.18359,0 0.48632,0.0586 0.88671,0.12305 0.40039,0.0586 1.29297,0.13672 1.83594,0.13672 0.89844,0 1.81836,-0.11719 2.7168,-0.11719 2.00195,0 3.71875,1.17578 3.71875,3.28125 0,2.01172 -1.54102,3.73047 -2.78125,4.13086 0,0 2.48047,4.0625 2.48047,4.0625 0.7207,1.15625 1.12109,1.93261 2.19726,2.69433 0.14453,0.10254 0.16407,0.21973 0.0391,0.32227 0,0 0,-0.0195 0,-0.0195 z" /><path
         id="path24"
         style="fill:#6f0a19;fill-opacity:1;fill-rule:nonzero;stroke:none"
         d="m 527.61719,-278.98535 c -2.40235,0 -4.27735,1.75195 -4.27735,5.23437 0,3.05664 1.43555,5.27246 4.27735,5.27246 3.05566,0 4.27441,-2.21582 4.27441,-5.27246 0,-3.56054 -2.08008,-5.23437 -4.27441,-5.23437 z m 0,11.06836 c -3.41992,0 -5.95703,-2.44141 -5.95703,-5.81446 0,-3.56054 2.99804,-5.82031 5.95703,-5.82031 3.09472,0 5.9541,2.09961 5.9541,5.82031 0,3.37305 -2.53906,5.81446 -5.9541,5.81446 z" /><path
         id="path26"
         style="fill:#6f0a19;fill-opacity:1;fill-rule:nonzero;stroke:none"
         d="m 549.84277,-279.01074 c -0.97656,0.0391 -0.95703,0.41992 -0.85937,1.31836 0.11719,1.06054 1.14062,9.49707 1.14062,9.49707 0,0 -1.69726,0.15625 -1.69726,0.15625 0,0 -1.00586,-9.29199 -1.00586,-9.29199 0,0 -3.73828,8.61328 -3.73828,8.61328 0,0 -0.69532,0.12207 -0.69532,0.12207 0,0 -4.21875,-8.77442 -4.21875,-8.77442 0,0 -0.7207,9.17481 -0.7207,9.17481 0,0 -1.43945,0.17578 -1.43945,0.17578 0.88086,-11.49317 0.78125,-9.58887 0.82031,-10.04785 0.0801,-0.72266 0,-0.9043 -0.85937,-0.94336 -0.41797,-0.0195 -0.48438,-0.17969 -0.48438,-0.31641 0,-0.22461 0.16406,-0.24414 0.32227,-0.22461 0.47851,0.0586 1.60156,0.10156 2.02148,0.14649 0.2793,0.0195 0.40039,0.0781 0.60156,0.47851 0,0 4.37696,9.05274 4.37696,9.05274 0,0 3.83789,-9.01368 3.83789,-9.01368 0.15625,-0.38085 0.40039,-0.49804 0.68164,-0.51757 0.43945,-0.0449 1.53515,-0.0684 1.99414,-0.12696 0.18359,-0.0195 0.40039,0.0391 0.40039,0.24414 0,0.13672 -0.0586,0.25782 -0.47852,0.27735 z" /><path
         id="path28"
         style="fill:#6f0a19;fill-opacity:1;fill-rule:nonzero;stroke:none"
         d="m 557.41113,-277.6084 c 0,0 -1.81836,4.39453 -1.81836,4.39453 0,0 3.49805,0 3.49805,0 0,0 -1.67969,-4.39453 -1.67969,-4.39453 z m 3.85742,9.58887 c 0,0 -1.875,-4.59473 -1.875,-4.59473 0,0 -4.12109,0 -4.12109,0 0,0 -1.79883,4.41895 -1.79883,4.41895 0,0 -1.19922,0.15625 -1.19922,0.15625 0,0 4.45508,-10.2334 4.45508,-10.2334 0.10352,-0.23438 0.084,-0.37695 -0.0391,-0.63477 0,0 -0.27734,-0.60547 -0.27734,-0.60547 0,0 1.47656,0 1.47656,0 0.11719,0 0.24414,0.082 0.30273,0.20508 0,0 4.61719,11.09278 4.61719,11.09278 0,0 -1.54102,0.19531 -1.54102,0.19531 z" /><path
         id="path30"
         style="fill:#6f0a19;fill-opacity:1;fill-rule:nonzero;stroke:none"
         d="m 390.22852,-281.68848 c -0.45899,0.0801 -0.45899,0.66211 -0.47852,1.01758 0,0.14258 -0.10547,5.15625 -0.40039,7.4961 -0.22266,1.66015 -0.94336,5.3164 -5.01758,5.3164 -4.09961,0 -5.16406,-3.19726 -5.43945,-5.35547 -0.16406,-1.1582 -0.22266,-4.67773 -0.22266,-6.49414 0,-0.58203 -0.0391,-0.96289 -0.0391,-0.96289 -0.0195,-0.43945 -0.0195,-0.95703 -0.40039,-1.01758 -0.91797,-0.1582 -1.03711,-0.17773 -1.03711,-0.32031 0,-0.23828 0.14453,-0.25781 0.40039,-0.23828 0.59766,0.0391 1.41797,0.0781 1.89648,0.0781 0.47852,0 1.14063,-0.0391 1.73829,-0.0781 0.26367,-0.0195 0.40039,0 0.40039,0.23828 0,0.14258 -0.17774,0.20117 -0.91797,0.32031 -0.41992,0.0801 -0.5,0.51953 -0.47852,1.01758 0,0 0.0586,4.59961 0.17578,6.85547 0.20313,3.52148 1.70508,5.33691 3.92383,5.33691 2.73438,0 3.99414,-2.23535 4.19727,-5.1748 0.1582,-2.31445 0.1582,-4.43359 0.1582,-6.57227 0,0 0,-0.44531 0,-0.44531 0,-0.43945 -0.0195,-0.95703 -0.40039,-1.01758 -0.91797,-0.1582 -1.03711,-0.17773 -1.03711,-0.32031 0,-0.23828 0.13867,-0.25781 0.40039,-0.23828 0.59766,0.0391 1.21289,0.0781 1.69922,0.0781 0.48047,0 0.80078,-0.0391 1.39648,-0.0781 0.26368,-0.0195 0.40039,0 0.40039,0.23828 0,0.14258 -0.17578,0.20117 -0.91796,0.32031 z" /><path
         id="path32"
         style="fill:#6f0a19;fill-opacity:1;fill-rule:nonzero;stroke:none"
         d="m 403.82031,-279.01074 c -0.85937,0.0391 -0.85937,0.20117 -0.85937,0.96289 0,0 0,0.97656 0,0.97656 0,0 0,8.85645 0,8.85645 0,0 -0.92383,0.19531 -0.92383,0.19531 0,0 -7.03125,-9.51074 -7.03125,-9.51074 0,0 0,9.29589 0,9.29589 0,0 -0.82031,0.23926 -0.82031,0.23926 0,0 0,-9.69726 0,-9.69726 0,0 0,-0.35547 0,-0.35547 0,-0.76172 0,-0.92383 -0.86133,-0.96289 -0.41992,-0.0195 -0.45899,-0.10156 -0.45899,-0.23828 0,-0.18164 0.0801,-0.32227 0.30274,-0.30274 0.67578,0.0781 1.66016,0.1211 2.19726,0.16602 0,0 6.75586,9.24804 6.75586,9.24804 0,0 0,-6.93359 0,-6.93359 0,0 0,-0.97656 0,-0.97656 0,-0.76172 0,-0.92383 -0.85937,-0.96289 -0.40039,-0.0195 -0.47852,-0.082 -0.47852,-0.23828 0,-0.20118 0.11719,-0.30274 0.30274,-0.30274 0.27344,0 1.19531,0.16602 1.53711,0.16602 0.31836,0 1.11328,-0.16602 1.37695,-0.16602 0.17969,0 0.30273,0.10156 0.30273,0.30274 0,0.15625 -0.084,0.21875 -0.48242,0.23828 z" /><path
         id="path34"
         style="fill:#6f0a19;fill-opacity:1;fill-rule:nonzero;stroke:none"
         d="m 409.33594,-278.84863 c -0.35547,0.0586 -0.35547,0.45898 -0.35547,0.78125 0,0 0,9.8916 0,9.8916 0,0 -1.52344,0.11719 -1.52344,0.11719 0,0 0,-10.00879 0,-10.00879 0,-0.3418 -0.0195,-0.72266 -0.32226,-0.78125 -0.63477,-0.0977 -0.83594,-0.12305 -0.83594,-0.32227 0,-0.17578 0.0781,-0.2793 0.33789,-0.25976 0.47851,0.0449 1.24023,0.084 1.62109,0.084 0.38086,0 1.01563,-0.0391 1.49805,-0.084 0.25977,-0.0195 0.33789,0.084 0.33789,0.25976 0,0.18555 -0.25391,0.24414 -0.75781,0.32227 z" /><path
         id="path36"
         style="fill:#6f0a19;fill-opacity:1;fill-rule:nonzero;stroke:none"
         d="m 422.4082,-278.92676 c -0.36132,0.0586 -0.55664,0.35547 -0.69922,0.69336 0,0 -3.99414,10.05762 -3.99414,10.05762 0,0 -1.06445,0.11719 -1.06445,0.11719 0,0 -4.01758,-9.96973 -4.01758,-9.96973 -0.0976,-0.22461 -0.18164,-0.5625 -0.31836,-0.76172 -0.082,-0.13672 -0.19922,-0.19531 -0.45898,-0.2207 -0.40039,-0.0195 -0.47852,-0.082 -0.47852,-0.23828 0,-0.18164 0.11719,-0.32227 0.31836,-0.30274 0.47852,0.0586 1.2793,0.0781 1.69922,0.1211 0.43945,0.0449 0.55664,0.35742 0.67774,0.69921 0,0 3.4375,9.09571 3.4375,9.09571 0,0 3.41796,-8.61719 3.41796,-8.61719 0.10352,-0.23437 -0.0586,-0.55664 -0.33593,-0.5957 -0.76172,-0.12305 -0.85938,-0.24414 -0.85938,-0.3418 0,-0.15625 0.0586,-0.25977 0.33594,-0.24023 0.48437,0.0449 0.98242,0.084 1.36328,0.084 0.38086,0 0.69727,-0.0391 1.17578,-0.084 0.2793,-0.0195 0.3418,0.084 0.3418,0.24023 0,0.11719 -0.12109,0.17969 -0.54102,0.26367 z" /><path
         id="path38"
         style="fill:#6f0a19;fill-opacity:1;fill-rule:nonzero;stroke:none"
         d="m 430.99219,-268.47852 c -0.0195,0.45899 -0.16211,0.50293 -0.5625,0.4834 -1.53711,-0.0635 -3.07617,-0.21972 -4.61914,-0.12207 0,0 -1.19532,0.0781 -1.19532,0.0781 0,0 0,-10.02832 0,-10.02832 0,-0.76172 -0.0195,-0.91797 -0.88476,-0.96289 -0.39453,-0.0234 -0.45899,-0.082 -0.45899,-0.23828 0,-0.18165 0.10352,-0.28321 0.30274,-0.28321 0.2207,0 0.47851,0.0586 0.69922,0.10156 0.32226,0.0645 0.8789,0.10352 1.29883,0.10352 1.43945,0 2.85546,-0.0391 4.30078,-0.10352 0.39648,-0.0234 0.5332,0 0.55664,0.46485 0.0195,0.51758 0.0391,1.03515 0.0391,1.43555 0,0.30273 -0.0625,0.33593 -0.21875,0.33593 -0.33789,0 -0.26367,-1.2207 -0.60156,-1.43554 -0.25391,-0.16016 -0.9961,-0.21875 -1.15625,-0.21875 0,0 -2.04102,0 -2.04102,0 -0.29883,0 -0.31836,0.0586 -0.31836,0.17578 0,0 0,4.6582 0,4.6582 0,0 2.13867,0 2.13867,0 0.25977,0 0.82032,-0.0195 0.87891,-0.35742 0.14258,-0.74219 0.20117,-0.88281 0.38086,-0.88281 0.2207,0 0.24023,0.14062 0.2207,0.34179 -0.0391,0.45899 -0.084,0.80078 -0.084,1.16211 0,0.35547 0.0449,0.7168 0.084,1.17578 0.0195,0.20118 0,0.3418 -0.2207,0.3418 -0.17969,0 -0.23828,-0.14062 -0.38086,-0.87891 -0.0586,-0.34179 -0.53711,-0.38086 -0.87891,-0.38086 0,0 -2.13867,0 -2.13867,0 0,0 0,4.07813 0,4.07813 0,0.63867 0.0195,0.7168 0.43946,0.78027 0.38086,0.0586 0.72265,0.0977 1.27929,0.0977 0.36133,0 2.09961,-0.0195 2.33985,-0.18066 0.34179,-0.21973 0.25781,-1.49805 0.61523,-1.49805 0.16602,0 0.22461,0.0391 0.22461,0.3418 0,0.40039 -0.0195,0.89746 -0.0391,1.41503 z" /><path
         id="path40"
         style="fill:#6f0a19;fill-opacity:1;fill-rule:nonzero;stroke:none"
         d="m 437.31445,-278.90723 c 0,0 -0.57617,0 -0.57617,0 -0.40039,0 -0.52148,0.19532 -0.52148,0.47266 0,0 0,4.82031 0,4.82031 0.24414,0.0195 0.36133,0.0391 0.68359,0.0391 2.49414,0 2.77344,-1.69921 2.77344,-2.95898 0,-1.47461 -0.47852,-2.37305 -2.35938,-2.37305 z m 4.80078,11.09278 c -0.72265,0 -1.25976,-0.26368 -1.67968,-0.85938 0,0 -0.69922,-1.02051 -0.69922,-1.02051 0,0 -2.25977,-3.4375 -2.25977,-3.4375 -0.33789,0.0781 -0.45898,0.0781 -0.83984,0.0781 0,0 -0.41992,0 -0.41992,0 0,0 0,4.8584 0,4.8584 0,0 -1.51953,0.17578 -1.51953,0.17578 0,0 0,-10.02832 0,-10.02832 0,-0.74219 -0.0195,-0.92383 -0.87891,-0.96289 -0.40039,-0.0195 -0.45898,-0.10156 -0.45898,-0.23828 0,-0.20118 0.11718,-0.30274 0.30273,-0.30274 0.21484,0 0.47852,0.0586 0.69922,0.10156 0.3164,0.0645 1.24023,0.10352 1.66015,0.10352 0.7168,0 1.45508,-0.084 2.17774,-0.084 1.5957,0 3.0957,0.92382 3.0957,2.61718 0,1.86133 -1.51953,2.99805 -2.39844,3.32032 2.5586,3.81836 1.99805,2.97851 2.97852,4.47753 0.14258,0.21973 0.43945,0.53711 0.67969,0.76172 0.14062,0.11719 0.2832,0.13672 0.2832,0.29786 0,0.1416 -0.43945,0.1416 -0.72266,0.1416 z" /><path
         id="path42"
         style="fill:#6f0a19;fill-opacity:1;fill-rule:nonzero;stroke:none"
         d="m 447.65625,-267.91699 c -0.74219,0 -2.00195,-0.21973 -2.93945,-0.85938 0,0 0.29883,-0.69726 0.29883,-0.69726 0.70312,0.59472 1.97656,0.99511 2.64062,0.99511 1.51758,0 2.69531,-0.75683 2.69531,-2.25488 0,-0.80078 -0.69922,-1.25976 -1.31836,-1.62109 -0.99609,-0.57617 -2.07617,-0.97656 -2.93359,-1.77735 -0.66406,-0.60156 -1.18164,-1.31836 -1.18164,-2.59765 0,-1.67969 1.57617,-2.82227 3.5,-2.82227 0.63476,0 1.43555,0.1211 2.33398,0.30274 0.043,0.69726 0.043,1.31836 0.043,1.79687 0,0.21875 0,0.3418 -0.20508,0.3418 -0.19531,0 -0.25781,-0.12305 -0.38086,-0.85938 -0.0976,-0.53711 -0.67382,-0.97656 -1.89453,-0.97656 -1.32226,0 -2.45898,0.61524 -2.45898,2.03516 0,0.43945 0.25781,0.69922 0.58008,1.00195 0.49804,0.47852 1.31836,0.81445 1.9375,1.11719 0.76172,0.35742 1.53906,0.75781 2.11914,1.35742 0.51758,0.54297 0.85937,1.32422 0.85937,2.28125 0,2.05957 -1.69922,3.23633 -3.69531,3.23633 z" /><path
         id="path44"
         style="fill:#6f0a19;fill-opacity:1;fill-rule:nonzero;stroke:none"
         d="m 456.56641,-278.84863 c -0.35547,0.0586 -0.35547,0.45898 -0.35547,0.78125 0,0 0,9.8916 0,9.8916 0,0 -1.52344,0.11719 -1.52344,0.11719 0,0 0,-10.00879 0,-10.00879 0,-0.3418 -0.0195,-0.72266 -0.31836,-0.78125 -0.63867,-0.0977 -0.83984,-0.12305 -0.83984,-0.32227 0,-0.17578 0.0781,-0.2793 0.33789,-0.25976 0.48242,0.0449 1.24023,0.084 1.62109,0.084 0.38086,0 1.01563,-0.0391 1.49805,-0.084 0.25976,-0.0195 0.33789,0.084 0.33789,0.25976 0,0.18555 -0.25391,0.24414 -0.75781,0.32227 z" /><path
         id="path46"
         style="fill:#6f0a19;fill-opacity:1;fill-rule:nonzero;stroke:none"
         d="m 468.84961,-278.57129 c 0,0 -0.63672,-0.12109 -0.63672,-0.12109 0,0 -3.58008,0 -3.58008,0 0,0 0,10.5166 0,10.5166 0,0 -1.52343,0.15625 -1.52343,0.15625 0,0 0,-10.67285 0,-10.67285 -0.93165,-0.0195 -2.8125,0 -2.8125,0 -0.83985,0 -0.94141,0.18554 -1.01954,0.60547 -0.0391,0.19531 0,0.87304 -0.29882,0.87304 0,0 -0.043,0 -0.043,0 -0.20117,0 -0.23438,-0.11718 -0.23438,-0.33593 0,-0.4004 0,-0.91797 0.0137,-1.43555 0.0195,-0.46485 0.16211,-0.48828 0.5625,-0.46485 0.52149,0.0195 0.96094,0.0449 1.67969,0.0645 2.13867,0.0781 4.31641,0.0391 6.45508,0.0391 0.55859,0 1.20117,-0.20508 1.47656,-0.20508 0.0781,0 0.22266,0.0391 0.22266,0.20508 0,0.29297 -0.0977,0.33594 -0.26172,0.77539 z" /><path
         id="path48"
         style="fill:#6f0a19;fill-opacity:1;fill-rule:evenodd;stroke:none"
         d="m 478.06836,-268.01953 c 0,0 -1.875,-4.59473 -1.875,-4.59473 0,0 -4.11328,0 -4.11328,0 0,0 -1.80469,4.41895 -1.80469,4.41895 0,0 -1.20117,0.15625 -1.20117,0.15625 0,0 4.46094,-10.2334 4.46094,-10.2334 0.0996,-0.23438 0.0801,-0.37695 -0.0391,-0.63477 0,0 -0.28125,-0.60547 -0.28125,-0.60547 0,0 1.48243,0 1.48243,0 0.11718,0 0.23437,0.082 0.29492,0.20508 0,0 4.61914,11.09278 4.61914,11.09278 0,0 -1.54297,0.19531 -1.54297,0.19531 z m -3.84961,-9.58887 c 0,0 -1.82422,4.39453 -1.82422,4.39453 0,0 3.50391,0 3.50391,0 0,0 -1.67969,-4.39453 -1.67969,-4.39453 z m 0.79297,-2.65625 c 0,0 0.56445,0 0.56445,0 0,0 -2.35156,-2.35351 -2.35156,-2.35351 -0.25586,-0.25391 -0.43164,-0.36719 -0.60742,-0.36719 -0.29297,0 -0.56641,0.21094 -0.56641,0.5957 0,0.24024 0.10938,0.36914 0.69336,0.72266 0,0 2.26758,1.40234 2.26758,1.40234 z" /><path
         id="path50"
         style="fill:#ffffff;fill-opacity:1;fill-rule:evenodd;stroke:none"
         d="m 342.2207,-283.70215 c -0.12304,0.39063 -0.42968,1 -0.97461,1.43945 0,0 -0.43945,-0.40039 -0.43945,-0.40039 0.48633,-0.3164 0.86719,-0.87793 0.9668,-1.19043 0.23242,-0.73242 0.0566,-1.37207 -0.57813,-1.58203 -0.3125,-0.10742 -0.60058,0.12207 -0.87695,0.38575 -0.44141,0.40527 -0.80273,0.9082 -1.32031,1.21093 -0.40039,0.24414 -0.85742,0.40235 -1.49219,0.19043 -0.86914,-0.29297 -1.15234,-1.34277 -0.83984,-2.33886 0.10742,-0.33204 0.29296,-0.72266 0.55957,-1.22559 0.40722,0.1123 0.70019,0.20996 0.93457,0.28809 0.12695,0.0439 0.24707,0.0976 0.18847,0.28808 -0.0391,0.12207 -0.1123,0.19531 -0.56933,0.13184 -0.19532,-0.0342 -0.47071,0.13183 -0.66114,0.72265 -0.19824,0.63477 -0.083,1.23047 0.5127,1.43067 0.41992,0.1416 1.04492,-0.61817 1.29394,-0.90137 0.28321,-0.31445 0.61231,-0.67383 1.01075,-0.87109 0.36133,-0.19043 0.81054,-0.24414 1.28125,-0.083 1.03711,0.34668 1.33593,1.45996 1.0039,2.50488 z m -6.26025,1.16602 c -0.0391,0.13672 0.1123,0.17578 0.21728,0.22461 0,0 4.57032,2.19726 4.57032,2.19726 0,0 -0.3418,0.95703 -0.3418,0.95703 0,0 -4.64844,-2.23632 -4.64844,-2.23632 -0.29541,-0.14063 -0.23437,-0.12696 -0.40771,0.13281 -0.0732,0.11719 -0.13916,0.2832 -0.28565,0.20898 -0.14404,-0.0684 -0.17334,-0.19531 -0.0855,-0.36523 0.11719,-0.21094 0.3003,-0.56641 0.38575,-0.74805 0.0806,-0.18555 0.20019,-0.49805 0.2832,-0.72656 0.0684,-0.18164 0.18555,-0.24024 0.32471,-0.17188 0.10986,0.0547 0.0781,0.20118 -0.0122,0.52735 z m 2.01416,4.89843 c 0.57422,0.36524 0.79883,0.98633 0.42969,1.60157 -0.14844,0.24804 -0.33887,0.47851 -0.52735,0.66797 -0.0557,0.0547 -0.0586,0.0586 -0.10937,0.0254 0,0 -1.99268,-1.28516 -1.99268,-1.28516 0,0 0.16114,-0.26758 0.16114,-0.26758 0.64209,-1.05469 1.36474,-1.17773 2.03857,-0.74219 z m -2.71484,-1.00195 c 0.47851,0.3086 0.80078,0.73828 0.34423,1.49414 0,0 -0.17822,0.29883 -0.17822,0.29883 0,0 -1.64307,-1.06445 -1.64307,-1.06445 -0.12695,-0.084 -0.17333,-0.10742 -0.10253,-0.22461 0,0 0.0781,-0.13672 0.0781,-0.13672 0.35156,-0.57617 0.92285,-0.74219 1.50147,-0.36719 z m 3.16406,0.0937 c -0.80078,-0.51758 -1.52539,-0.20117 -2.07715,0.38086 0.0459,-0.5957 -0.18604,-1.09375 -0.72314,-1.43555 -0.60547,-0.39062 -1.51612,-0.084 -2.02637,0.76172 -0.17334,0.28321 -0.30029,0.57617 -0.47608,0.86328 -0.11474,0.19141 -0.32226,0.49414 -0.43213,0.6211 -0.0854,0.0976 -0.18066,0.19531 -0.24414,0.30273 -0.083,0.13672 -0.0488,0.28321 0.0708,0.36133 0.10498,0.0625 0.15625,0.0391 0.32226,-0.21484 0.20264,-0.29883 0.25147,-0.25391 0.50049,-0.0937 0,0 0.19043,0.12304 0.19043,0.12304 0,0 4.16064,2.67969 4.16064,2.67969 0,0 0.35645,-0.6875 0.43946,-0.82422 0.17773,-0.27344 0.35644,-0.39062 0.53906,-0.69922 0.62305,-1.01953 0.625,-2.26562 -0.24414,-2.82617 z m -9.36524,6.5918 c -0.10742,0.20898 -0.0781,0.49805 -0.0391,0.67383 0,0 1.15479,5.30664 1.15479,5.30664 0,0 -0.52002,0.4541 -0.52002,0.4541 -1.9043,-1.32324 -3.1709,-2.04102 -4.72364,-3.16406 -0.11718,-0.083 -0.17578,-0.16114 -0.31494,-0.0733 -0.2539,0.16114 -0.33203,0.13672 -0.40039,0.0293 -0.0781,-0.12207 -0.0464,-0.25879 0.10987,-0.3418 0.22216,-0.1123 0.57373,-0.33593 0.75927,-0.44336 0.23438,-0.13281 0.40283,-0.0195 0.58838,0.10743 0,0 3.80322,2.66504 3.80322,2.66504 0,0 -1.00341,-4.46778 -1.00341,-4.46778 -0.0586,-0.28711 -0.59327,0.24024 -0.74463,0.006 -0.0781,-0.12695 -0.0195,-0.2207 0.13672,-0.32226 0.2832,-0.18555 0.76171,-0.6836 1.01806,-0.99219 0.12451,-0.14063 0.28076,-0.10156 0.36133,0.0195 0.0415,0.0742 -0.0488,0.26953 -0.18555,0.54297 z m -8.36865,5.02832 c -0.33203,0.16113 -0.354,0.26367 -0.23681,0.70801 0.13671,0.53222 1.28906,4.89257 1.28906,4.89257 0,0 -1.04492,0.27344 -1.04492,0.27344 0,0 -1.14014,-4.45801 -1.14014,-4.45801 0,0 -1.15479,4.44825 -1.15479,4.44825 0,0 -0.47607,0.16113 -0.47607,0.16113 0,0 -2.62695,-3.89649 -2.62695,-3.89649 0,0 0.30078,4.44825 0.30078,4.44825 0,0 -0.91797,0.26367 -0.91797,0.26367 0,0 -0.33203,-5.08301 -0.33203,-5.08301 -0.0371,-0.51758 -0.11231,-0.63476 -0.41992,-0.65918 -0.25391,-0.0244 -0.36622,-0.0928 -0.38575,-0.22949 -0.0322,-0.21484 0.15332,-0.24902 0.24414,-0.25391 0.24903,-0.005 0.90332,0.0244 1.11817,0.0146 0.18555,-0.01 0.2832,0.0195 0.42969,0.22949 0,0 2.70507,4.1211 2.70507,4.1211 0,0 1.22266,-4.70703 1.22266,-4.70703 0.0659,-0.2295 0.2124,-0.3418 0.38086,-0.39063 0.22217,-0.0537 0.76172,-0.25879 0.99365,-0.32226 0.0903,-0.0244 0.31494,-0.0391 0.34424,0.16113 0.0195,0.14648 -0.0781,0.17578 -0.29297,0.27832 z m -7.8291,1.09863 c -0.13672,0.0195 -0.25391,0.0879 -0.35449,0.23926 0,0 -3.30274,4.67773 -3.30274,4.67773 0,0 -0.67871,-0.0879 -0.67871,-0.0879 -0.34424,-2.34375 -0.5957,-3.79883 -0.84961,-5.74218 -0.0147,-0.14161 -0.005,-0.23926 -0.16113,-0.28809 -0.28809,-0.083 -0.31982,-0.16113 -0.29297,-0.2832 0.0342,-0.14161 0.15869,-0.20996 0.32227,-0.14649 0.22949,0.0928 0.62744,0.20508 0.83008,0.27832 0.24902,0.0879 0.28808,0.29297 0.31738,0.51758 0,0 0.58349,4.69727 0.58349,4.69727 0,0 2.60987,-3.75977 2.60987,-3.75977 0.16308,-0.23926 -0.57617,-0.2832 -0.50782,-0.56641 0.0361,-0.1416 0.14649,-0.16601 0.32227,-0.1123 0.22461,0.0781 1.12793,0.15137 1.37207,0.15137 0.18555,0.005 0.26856,0.0684 0.24414,0.23437 -0.0176,0.11719 -0.13183,0.15137 -0.4541,0.19043 z m -6.68213,-1.77734 c -0.12695,-0.0439 -0.16846,0.1123 -0.22217,0.21972 0,0 -2.24121,4.57032 -2.24121,4.57032 0,0 -0.91553,-0.38575 -0.91553,-0.38575 0,0 2.27784,-4.64355 2.27784,-4.64355 0.15136,-0.30273 0.13183,-0.24414 -0.10987,-0.4248 -0.10986,-0.083 -0.27099,-0.15625 -0.19531,-0.30274 0.0684,-0.14648 0.19531,-0.1709 0.35889,-0.0781 0.19775,0.12695 0.53955,0.33203 0.71289,0.41992 0.1709,0.0928 0.47363,0.22461 0.6958,0.31738 0.16601,0.0732 0.22217,0.19531 0.15381,0.3418 -0.0562,0.1123 -0.2002,0.0732 -0.51514,-0.0342 z m -4.21142,0.46386 c -0.90577,1.20118 -2.05079,1.68458 -3.27149,0.70313 -0.32226,-0.25879 -0.5542,-0.46875 -0.71289,-0.68848 -0.0977,-0.13183 -0.0854,-0.14648 0.0513,-0.33203 0,0 2.73193,-3.61719 2.73193,-3.61719 0.12207,-0.16601 0.19776,-0.16601 0.33448,-0.0488 0,0 0.59814,0.47851 0.59814,0.47851 1.53076,1.22461 1.06445,2.44043 0.26856,3.50488 z m 0.91796,0.57129 c 1.04493,-1.38671 0.67383,-3.15429 -0.74218,-4.28711 -0.34912,-0.27734 -0.5835,-0.45312 -0.78858,-0.60546 -0.16845,-0.1211 -0.33935,-0.24414 -0.50049,-0.375 -0.17089,-0.13672 -0.38574,-0.33204 -0.48584,-0.45508 -0.0879,-0.0918 -0.17334,-0.20508 -0.27099,-0.28321 -0.10987,-0.0879 -0.24903,-0.0918 -0.34424,0.0293 -0.10742,0.14258 0.0195,0.23438 0.16602,0.36719 0.26367,0.23437 0.21728,0.27734 0.0366,0.52148 0,0 -3.14209,4.16993 -3.14209,4.16993 0.46875,0.32226 0.75927,0.51269 1.14502,0.90332 0.17089,0.17578 0.31982,0.34179 0.43457,0.42968 1.61621,1.29883 3.37158,1.06934 4.49218,-0.41504 z m -3.71826,-6.44531 c -0.0903,-0.0918 -0.23437,-0.10742 -0.40283,-0.0586 0,0 -5.30029,1.49414 -5.30029,1.49414 0,0 -0.47119,-0.50195 -0.47119,-0.50195 1.14502,-2.05665 1.87744,-3.4043 2.854,-5.07813 0.0781,-0.12695 0.14404,-0.19531 0.0562,-0.33789 -0.17578,-0.24805 -0.15625,-0.32617 -0.0586,-0.4043 0.10986,-0.0937 0.24658,-0.0645 0.3418,0.0879 0.11962,0.22461 0.36132,0.56641 0.47851,0.75586 0.14649,0.23047 0.0488,0.41602 -0.0659,0.61133 0,0 -2.4414,4.0918 -2.4414,4.0918 0,0 4.3164,-1.25 4.3164,-1.25 0.27344,-0.084 -0.27343,-0.59571 -0.0513,-0.77149 0.10987,-0.084 0.21485,-0.0351 0.32227,0.1211 0.12695,0.21093 0.26367,0.42968 0.38086,0.59179 0.11963,0.15625 0.23437,0.27735 0.39306,0.46289 0.12452,0.14258 0.11719,0.2793 0.007,0.36719 -0.0684,0.0527 -0.13672,0.0293 -0.35889,-0.18164 z m -3.59375,-5.17969 c -0.0513,0.01 -0.10986,0 -0.30517,0.0195 0,0 -0.11719,-0.41016 -0.11719,-0.41016 0,0 -0.76172,-1.59766 -0.76172,-1.59766 0,0 -4.71436,2.38867 -4.71436,2.38867 0,0 -0.5249,-0.85937 -0.5249,-0.85937 0,0 4.80225,-2.44141 4.80225,-2.44141 -0.20752,-0.46875 -0.60791,-1.28906 -0.60791,-1.28906 -0.23194,-0.47461 -0.29297,-0.30273 -0.625,-0.20508 -0.15381,0.043 -0.3125,0.0625 -0.36865,-0.0488 -0.0781,-0.17187 -0.01,-0.24023 0.14648,-0.32226 0.18311,-0.0937 0.41748,-0.20508 0.65186,-0.3125 0.27587,-0.13184 0.36377,0 0.45166,0.21484 0.10742,0.24805 0.20263,0.46289 0.35156,0.81055 0.44922,1.03516 0.95703,2.06055 1.44287,3.07617 0.0903,0.18945 0.22705,0.35547 0.3418,0.52149 0.0317,0.0547 0.0684,0.0937 0.0879,0.13281 0.0195,0.0488 0.0708,0.20898 -0.0854,0.28711 -0.0806,0.0449 -0.0903,0.0391 -0.16602,0.0351 z m -8.38867,-5.32714 c -0.13428,-0.39063 -0.2417,-1.06934 -0.0684,-1.75782 0,0 0.5957,0.0488 0.5957,0.0488 -0.2124,0.55176 -0.18554,1.23731 -0.0854,1.54785 0.24415,0.73242 0.75928,1.12696 1.38672,0.90821 0.3125,-0.11329 0.40772,-0.46875 0.47608,-0.8545 0.11719,-0.59863 0.11474,-1.22558 0.34912,-1.78711 0.17578,-0.44433 0.45166,-0.85449 1.0791,-1.0791 0.8667,-0.30761 1.7041,0.35645 2.03613,1.34766 0.10743,0.33203 0.18555,0.76172 0.26612,1.32324 -0.39063,0.16309 -0.6836,0.26856 -0.91797,0.34863 -0.11963,0.0469 -0.25391,0.0811 -0.3125,-0.10937 -0.0391,-0.12207 -0.022,-0.22949 0.37842,-0.45899 0.16845,-0.0976 0.29541,-0.40039 0.10009,-0.98632 -0.20752,-0.63477 -0.64453,-1.03516 -1.24023,-0.8252 -0.4126,0.14649 -0.47119,1.14258 -0.50781,1.52344 -0.0415,0.42969 -0.0977,0.91797 -0.29541,1.32324 -0.18067,0.375 -0.50537,0.69336 -0.98145,0.86328 -1.02783,0.36719 -1.91406,-0.33594 -2.2583,-1.37597 z m 45.20654,9.33105 c 0.46387,0.41992 0.97168,1.07422 0.18311,1.99219 -0.0757,0.0879 -0.11719,0.13086 -0.17334,0.17969 0,0 -1.77979,-1.63477 -1.77979,-1.63477 -0.0684,-0.0586 -0.0952,-0.11328 0.002,-0.22461 0,0 0.19531,-0.22461 0.19531,-0.22461 0.59326,-0.68945 1.05957,-0.55664 1.57226,-0.0879 z m 4.32178,1.44922 c -0.0635,-0.0586 -0.13476,-0.0488 -0.18555,-0.0391 -0.18554,0.0391 -0.41064,0.0586 -0.59375,0.0351 -0.84961,-0.11328 -1.62353,-0.16601 -2.48046,-0.27343 0.16357,-0.51758 0.19287,-1.45118 -0.48096,-2.07032 -0.69092,-0.63086 -1.60156,-0.30859 -2.16797,0.35157 -0.24414,0.2832 -0.46631,0.5996 -0.71045,0.88867 -0.13916,0.16601 -0.45654,0.49804 -0.58594,0.60547 -0.0976,0.082 -0.2124,0.16015 -0.29297,0.25781 -0.0952,0.10742 -0.12939,0.23047 -0.01,0.3418 0.12695,0.11328 0.22217,0.0351 0.37109,-0.12696 0.24658,-0.2539 0.29297,-0.21484 0.51514,-0.01 0,0 3.77441,3.47265 3.77441,3.47265 0,0 0.57129,-0.83984 0.57129,-0.83984 0,0 -1.71875,-1.58203 -1.71875,-1.58203 0,0 0.0732,-0.0879 0.0732,-0.0879 0.10743,-0.12696 0.16114,-0.18555 0.2295,-0.3125 0,0 1.90673,0.20508 1.90673,0.20508 0.62745,0.0781 1.10352,0.23437 1.5918,-0.3379 0.125,-0.14062 0.25391,-0.41992 0.19336,-0.47851 z m -20.40771,2.62305 c -0.0361,0.16992 0.14941,0.33593 0.31543,0.16992 0.51269,-0.52149 1.12011,-1.56641 1.5205,-3.27149 1.26953,-5.30664 0.33203,-12.09863 0.33203,-12.11328 -0.38281,-2.8789 2.23633,-4.51953 4.40186,-5.57617 0.76416,-0.37109 1.41846,-0.91797 1.80908,-1.3916 0.40039,-0.46387 0.74463,-1.19141 0.97656,-1.96289 0.67383,-2.27246 1.97217,-4.88574 4.92872,-5.03223 0.0195,0 6.97509,-0.50976 12.09033,-2.67383 1.63476,-0.69336 2.57031,-1.5332 3.00781,-2.11914 0.13086,-0.1914 -0.0664,-0.33984 -0.23242,-0.27343 -4.79688,1.92968 -9.4336,2.87304 -14.48487,2.93066 0,0 -0.48583,0.0195 -0.48583,0.0195 -1.76026,0.042 -3.33008,0.78418 -4.4502,1.9502 -1.77002,1.8457 -1.31836,5.06152 -2.47314,6.33593 -1.16211,1.27442 -4.0918,1.43555 -5.84961,3.4375 -1.06153,1.21094 -1.65723,2.92481 -1.38868,4.62891 0.002,0.002 0.0684,0.53223 0.0684,0.54199 0.84473,4.86817 0.99805,9.43848 -0.0859,14.39942 z m 2.93701,-1.78321 c -0.0366,0.10352 0.0781,0.17188 0.16845,0.10352 0.46631,-0.33203 0.91553,-1.17774 1.54053,-2.4375 0.71289,-1.44531 2.11914,-5.99024 2.19238,-9.65723 0.0342,-1.4209 -0.0415,-2.83691 -0.20996,-4.23828 0,0 -0.0439,0 -0.0439,0 -1.11572,0.10254 -1.95557,1.01074 -1.96777,2.08496 0.0122,0.13672 0.022,0.2832 0.0317,0.42481 0.37842,4.55566 -0.21484,9.21386 -1.71142,13.71972 z m 3.33008,-3.47656 c -0.10743,0.2207 0,0.2793 0.16845,0.0879 0.76172,-0.84961 1.57959,-1.70312 2.13867,-2.72461 1.69922,-3.0957 2.44092,-6.46387 2.44092,-9.76465 0,-0.71289 -0.0391,-1.42578 -0.0976,-2.1289 -0.0415,-0.14942 -0.0391,-0.27637 -0.0122,-0.31739 0.0293,-0.0469 0.13184,-0.0439 0.29541,-0.0469 0.72266,-0.0605 1.44287,-0.15332 2.1582,-0.28027 3.32032,-0.58594 6.57959,-1.89454 9.3877,-4.08204 0.9248,-0.71972 1.63574,-1.65722 2.3584,-2.54394 0.16113,-0.2002 0.0879,-0.29297 -0.11719,-0.14844 -4.15039,2.91211 -8.81397,4.58692 -13.60401,4.85742 -0.52734,0.0176 -1.21533,0.27344 -1.75732,0.70118 -0.33691,0.26367 -0.59326,0.5957 -0.67139,0.96191 -0.20507,0.49512 -0.2832,1.04492 -0.22461,1.45996 0.58594,4.66797 -0.27099,9.45313 -2.46337,13.96875 z m 10.26318,-19.88184 c 3.67236,-0.72558 8.00342,-2.81738 9.33057,-3.76464 1.1582,-0.82422 1.92187,-1.40821 2.17773,-1.91602 0.0488,-0.10059 -0.0391,-0.20117 -0.13672,-0.14648 -4.26172,2.24804 -8.85693,3.57812 -13.50537,4.02343 -0.1416,0.0166 -0.28809,0.0293 -0.43213,0.0391 -1.07422,0.20898 -1.83838,1.17871 -1.73584,2.30664 1.44043,-0.0781 2.87598,-0.25879 4.30176,-0.542 z m -17.95801,-0.97363 c 0.55664,0 1.00586,0.22852 1.00586,0.41699 0,0.18848 -0.44922,0.41993 -1.00586,0.41993 -0.55176,0 -1.00098,-0.23145 -1.00098,-0.41993 0,-0.18847 0.44922,-0.41699 1.00098,-0.41699 z m -2.64648,-1.63672 c -1.7334,0 -1.62598,-0.42968 -1.66797,-0.56347 0,0 0.45703,-0.8877 1.67773,-0.8877 1.21289,0 1.54297,1.06836 1.54297,1.06836 0,0 -0.27344,0.38281 -1.55273,0.38281 z m 2.64648,4.88086 c -1.07226,0 -1.9414,-0.89355 -1.9414,-1.14746 0,-0.25391 3.88671,-0.25391 3.88671,0 0,0.25391 -0.87109,1.14746 -1.94531,1.14746 z m 2.58985,-4.88086 c -1.27637,0 -1.54493,-0.38281 -1.54493,-0.38281 0,0 0.32227,-1.06836 1.54297,-1.06836 1.21289,0 1.66944,0.8877 1.66944,0.8877 -0.0391,0.13379 0.0684,0.56347 -1.66748,0.56347 z m 2.87109,0.60157 c -0.0781,-0.8086 -0.18555,-2.27344 -0.21484,-3.04688 -2.23829,0 -4.60938,-1.71191 -5.27344,-2.77734 -0.66114,1.06543 -3.03711,2.77734 -5.27295,2.77734 -0.0317,0.77344 -0.13672,2.23828 -0.21729,3.04688 -0.15381,1.48144 0.37354,3.01953 1.35938,4.12792 0.50781,0.57129 1.14258,1.12793 1.84375,1.4502 0.0605,0.0244 0.12695,0.0488 0.19726,0.0781 0,0 0.33496,0.14648 0.33496,0.14648 0.19043,0.10254 0.29786,0.24414 0.4834,0.38281 0.51953,0.37403 1.25,0.34961 1.26953,0.34961 0.0244,0 0.75196,0.0244 1.27149,-0.34961 0.18359,-0.13867 0.29101,-0.28027 0.48633,-0.38281 0,0 0.33398,-0.14648 0.33398,-0.14648 0.0713,-0.0293 0.13477,-0.0537 0.19824,-0.0781 0.7002,-0.32227 1.33252,-0.87891 1.84278,-1.4502 0.98633,-1.10839 1.51367,-2.64648 1.35742,-4.12792 z m -9.74805,-10.41797 c -1.82373,1.11328 -2.3584,1.14257 -2.3584,1.14257 0,0 -0.0122,1.90235 2.71192,0.85938 0.95703,-0.36719 3.86719,-2.00684 3.37695,-2.68945 -0.82812,-1.14746 -2.25391,-0.21875 -3.73047,0.6875 z m 2.55078,2.48242 c -4.75537,2.73242 -6.42285,0.21094 -6.42285,0.21094 0,0 -1.80908,2.07617 1.18164,2.88281 3.15918,0.85058 5.29785,-1.0791 5.80762,-1.45117 0.94531,-0.69336 1.14062,-2.61914 -0.56641,-1.64258 z m 5.9668,-2.48242 c 1.82617,1.11328 2.43408,1.14257 2.43408,1.14257 0,0 -0.0635,1.90235 -2.78808,0.85938 -0.95655,-0.36719 -3.87159,-2.00684 -3.37647,-2.68945 0.82324,-1.14746 2.25391,-0.21875 3.73047,0.6875 z m -2.55078,2.48242 c 4.75537,2.73242 6.49609,0.21094 6.49609,0.21094 0,0 1.73828,2.07617 -1.25244,2.88281 -3.16162,0.85058 -5.30224,-1.0791 -5.81006,-1.45117 -0.94238,-0.69336 -1.14062,-2.61914 0.56641,-1.64258 z m 7.35547,3.5293 c -0.19287,0.26269 -1.10352,1.35351 -2.54151,1.51269 0.022,0.59082 0.0317,1.36035 0.0708,1.97949 2.3462,-0.32226 3.34961,-2.08398 2.47071,-3.49218 z m -2.4292,5.2041 c -0.0635,0.68847 -0.23926,1.37011 -0.52002,2.0166 1.60156,-0.29297 2.62695,-1.23242 2.20703,-3.23438 -0.14893,0.31934 -0.82031,1.05469 -1.68701,1.05469 0,0 0,0.16309 0,0.16309 z m -13.22705,-1.67285 c 0.0415,-0.62208 0.0513,-1.38868 0.0708,-1.98243 -1.43555,-0.15722 -2.35352,-1.25 -2.54151,-1.51367 -0.8789,1.40918 0.12207,3.17188 2.47071,3.4961 z m -0.0439,1.54882 c -0.86426,0 -1.60644,-0.73828 -1.75293,-1.05468 -0.42724,2.00195 0.66895,2.93652 2.27051,3.22949 -0.27588,-0.64356 -0.45166,-1.3252 -0.51758,-2.01465 0,0 0,-0.16016 0,-0.16016 z m 6.55762,-40.67578 c -18.81836,0 -34.12598,18.37012 -34.12598,40.94922 0,22.58008 15.30762,40.94824 34.12598,40.94824 18.81982,0 34.12451,-18.36816 34.12451,-40.94824 0,-22.5791 -15.30469,-40.94922 -34.12451,-40.94922 z m 0,80.68653 c -18.16406,0 -32.93945,-17.82715 -32.93945,-39.73731 0,-21.90723 14.77539,-39.73437 32.93945,-39.73437 18.16553,0 32.94092,17.82714 32.94092,39.73437 0,21.91016 -14.77539,39.73731 -32.94092,39.73731 z m 11.02978,-45.87989 c -0.0976,1.74121 1.9502,-1.24414 0.28321,-3.59961 -1.35987,-1.93554 -2.61231,-4.55566 -0.92774,-6.91113 0.0147,-0.0127 3.8545,-5.65723 5.27295,-10.91797 0.45655,-1.6875 0.36866,-2.9248 0.17578,-3.61914 -0.0635,-0.22461 -0.30273,-0.16504 -0.35156,0 -1.41846,4.87695 -3.49853,9.01563 -6.53515,12.91797 0,0 -0.27344,0.37988 -0.27588,0.37988 -1.04248,1.37598 -1.41358,3.04102 -1.18653,4.6211 0.43701,3.04394 3.68653,4.55859 3.54492,7.1289 z m 0.9419,-8.84863 c -0.49512,0.95117 -0.20215,2.13965 0.71289,2.74805 0.84473,-1.13672 1.57471,-2.34864 2.22168,-3.61328 1.6748,-3.26075 2.67334,-7.88477 2.7417,-9.49024 0.0659,-1.39453 0.0708,-2.34961 -0.16846,-2.85937 -0.0464,-0.10254 -0.17578,-0.0967 -0.19531,0.0117 -0.83984,4.66602 -2.59766,9.01172 -5.08301,12.84473 0,0 -0.22949,0.3584 -0.22949,0.3584 z m 1.98242,4.81738 c -0.61279,0.83399 -0.87646,2.78711 0.3125,3.25293 0.81543,0.32129 3.32276,0.0459 4.41651,-0.39062 0.20263,-0.0791 0.16357,-0.35742 0.002,-0.42285 -0.96924,-0.4043 -2.46582,-0.78321 -3.125,-0.9375 2.20459,-3.3086 3.6206,-7.28223 3.6206,-11.55567 0,-1.15527 -0.29541,-2.28613 -0.54931,-3.38867 -0.0562,-0.24805 -0.17579,-0.24805 -0.18555,-9.8e-4 -0.25391,4.99121 -1.78223,9.60254 -4.49219,13.44336 z m -24.05176,-6.47949 c 1.68946,2.35547 0.43213,4.97559 -0.92529,6.91113 -1.6626,2.35547 0.38086,5.34082 0.2832,3.59961 -0.13916,-2.57031 3.10547,-4.08496 3.54493,-7.1289 0.22705,-1.58008 -0.14649,-3.24512 -1.18897,-4.6211 0,0 -0.27588,-0.37988 -0.27588,-0.37988 -3.02978,-3.90234 -5.11474,-8.04102 -6.5332,-12.91797 -0.0488,-0.16504 -0.28565,-0.22461 -0.35156,0 -0.18799,0.69434 -0.27588,1.93164 0.17578,3.61914 1.42578,5.26074 5.26367,10.90528 5.27099,10.91797 z m -4.51904,0.79688 c 0.64697,1.26464 1.37695,2.47656 2.18994,3.63281 0.94727,-0.62793 1.24024,-1.81641 0.74951,-2.76758 -0.0806,-0.11914 -0.15625,-0.24023 -0.23437,-0.3584 -2.48047,-3.83301 -4.23828,-8.17871 -5.07813,-12.84473 -0.0195,-0.10839 -0.14892,-0.11425 -0.19775,-0.0117 -0.2417,0.50976 -0.23193,1.46484 -0.16602,2.85937 0.0684,1.60547 1.0669,6.22949 2.73682,9.49024 z m -0.6543,7.18457 c -0.65673,0.15429 -2.14843,0.5332 -3.125,0.9375 -0.15869,0.0654 -0.19531,0.34375 0.007,0.42285 1.09375,0.43652 3.60351,0.71191 4.4165,0.39062 1.18897,-0.46582 0.92774,-2.41894 0.31006,-3.25293 -2.70508,-3.84082 -4.23828,-8.45215 -4.48975,-13.44336 -0.01,-0.24707 -0.12695,-0.24707 -0.18554,9.8e-4 -0.25391,1.10254 -0.54932,2.2334 -0.54932,3.38867 0,4.27344 1.41602,8.24707 3.61572,11.55567 z m 13.94776,20.47558 c 0,-0.01 0.0635,-0.54004 0.0654,-0.54199 0.2666,-1.7041 -0.32422,-3.41797 -1.38867,-4.62891 -1.75538,-2.00195 -4.68506,-2.16308 -5.84717,-3.4375 -1.15479,-1.27441 -0.70313,-4.49023 -2.47803,-6.33593 -1.11572,-1.16602 -2.68799,-1.90821 -4.44824,-1.9502 0,0 -0.48584,-0.0195 -0.48584,-0.0195 -5.04883,-0.0576 -9.68506,-1.00098 -14.48487,-2.93066 -0.16601,-0.0664 -0.36621,0.082 -0.22949,0.27343 0.43701,0.58594 1.36719,1.42578 3.00537,2.11914 5.11475,2.16407 12.07032,2.67383 12.08985,2.67383 2.95898,0.14649 4.25537,2.75977 4.93164,5.03223 0.23193,0.77148 0.57617,1.49902 0.97656,1.96289 0.39063,0.47363 1.04492,1.02051 1.80908,1.3916 2.16553,1.05664 4.78223,2.69727 4.40137,5.57617 0,0.0147 -0.93945,6.80664 0.32519,12.11328 0.40723,1.70508 1.0127,2.75 1.52833,3.27149 0.16601,0.16601 0.35156,0 0.3125,-0.16992 -1.08204,-4.96094 -0.92774,-9.53125 -0.083,-14.39942 z m -4.56299,-1.10351 c 0.01,-0.14161 0.0195,-0.28809 0.0293,-0.42481 -0.0171,-1.07422 -0.84961,-1.98242 -1.96534,-2.08496 0,0 -0.0439,0 -0.0439,0 -0.16846,1.40137 -0.24414,2.81738 -0.20996,4.23828 0.0708,3.66699 1.47949,8.21192 2.19238,9.65723 0.62256,1.25976 1.07422,2.10547 1.53809,2.4375 0.0928,0.0684 0.20507,0 0.17089,-0.10352 -1.49902,-4.50586 -2.08984,-9.16406 -1.71142,-13.71972 z m -4.08203,-3.72559 c 0.0586,-0.41504 -0.0195,-0.96484 -0.22461,-1.45996 -0.0806,-0.36621 -0.33936,-0.69824 -0.67383,-0.96191 -0.53955,-0.42774 -1.22803,-0.6836 -1.75537,-0.70118 -4.79004,-0.2705 -9.45557,-1.94531 -13.60352,-4.85742 -0.20507,-0.14453 -0.2832,-0.0518 -0.11963,0.14844 0.72266,0.88672 1.43555,1.82422 2.36084,2.54394 2.80518,2.1875 6.0669,3.4961 9.38721,4.08204 0.71289,0.12695 1.43555,0.21972 2.15576,0.28027 0.16114,0.003 0.26856,0 0.29541,0.0469 0.0293,0.041 0.0317,0.16797 -0.01,0.31739 -0.061,0.70312 -0.0977,1.41601 -0.0977,2.1289 0,3.30078 0.74219,6.66895 2.44141,9.76465 0.55908,1.02149 1.37695,1.875 2.13867,2.72461 0.17334,0.19141 0.27588,0.13281 0.16846,-0.0879 -2.19239,-4.51562 -3.04932,-9.30078 -2.46338,-13.96875 z m -3.49854,-5.37109 c 0.1001,-1.12793 -0.66162,-2.09766 -1.73584,-2.30664 -0.14648,-0.01 -0.29297,-0.0225 -0.43213,-0.0391 -4.64843,-0.44531 -9.2456,-1.77539 -13.51074,-4.02343 -0.0976,-0.0547 -0.18555,0.0459 -0.13672,0.14648 0.26123,0.50781 1.02295,1.0918 2.18506,1.91602 1.32569,0.94726 5.6543,3.03906 9.3335,3.76464 1.41845,0.28321 2.854,0.46387 4.29687,0.542 z m 12.75879,-30.70606 c -1.09668,1.25195 -1.29199,4.54395 -1.41894,6.02442 -1.10059,-0.98536 -2.71192,-2.41797 -4.21094,-2.46094 -0.18311,-0.007 -0.41748,0.0322 -0.20264,0.26367 0.73242,0.78906 2.44873,2.625 3.26123,3.50586 0.38086,0.41602 0.80078,0.56152 1.19141,0.58887 0.21777,0.0117 0.35156,-0.002 0.46191,-0.0195 0.0752,-0.002 0.28809,-0.0801 0.33692,-0.1211 0.13672,-0.082 0.26855,-0.18457 0.3955,-0.31152 0.29004,-0.31641 0.49805,-0.71192 0.49512,-1.27051 -0.002,-1.23828 0.003,-4.66309 0.003,-5.99609 0.005,-0.33985 -0.19043,-0.3418 -0.3125,-0.20313 z m 1.38184,0.20313 c 0,1.333 0.01,4.75781 0,5.99609 0,0.55859 0.20703,0.9541 0.4707,1.24121 0.15625,0.15625 0.29102,0.25879 0.42285,0.34082 0.0488,0.041 0.26074,0.11914 0.33692,0.1211 0.10742,0.0176 0.24609,0.0312 0.4248,0.0225 0.42676,-0.0303 0.84668,-0.17578 1.22754,-0.5918 0.81055,-0.88086 2.5293,-2.7168 3.26172,-3.50586 0.21484,-0.23145 -0.0122,-0.27051 -0.19775,-0.26367 -1.50391,0.043 -3.11524,1.47558 -4.2085,2.46094 -0.13672,-1.48047 -0.36133,-4.77247 -1.45508,-6.02442 -0.12695,-0.13867 -0.2832,-0.13672 -0.2832,0.20313 z" /></g></g></svg>